<?xml version="1.0" standalone="no"?>
<!DOCTYPE svg PUBLIC "-//W3C//DTD SVG 20010904//EN"
 "http://www.w3.org/TR/2001/REC-SVG-20010904/DTD/svg10.dtd">
<svg version="1.0" xmlns="http://www.w3.org/2000/svg"
 width="500.000000pt" height="500.000000pt" viewBox="0 0 500.000000 500.000000"
 preserveAspectRatio="xMidYMid meet">
<metadata>
Created by potrace 1.14, written by Peter Selinger 2001-2017
</metadata>
<g transform="translate(0.000000,500.000000) scale(0.100000,-0.100000)"
fill="#000000" stroke="none">
<path d="M2270 4859 c-36 -4 -86 -10 -112 -13 -214 -26 -473 -107 -713 -225
-373 -184 -688 -462 -927 -821 -61 -93 -216 -387 -222 -422 -1 -7 -4 -17 -7
-23 -30 -51 -121 -396 -134 -510 -4 -32 -9 -68 -12 -80 -9 -38 -11 -420 -2
-495 14 -126 19 -162 35 -240 94 -457 320 -879 648 -1205 50 -50 116 -110 146
-135 30 -25 57 -47 60 -50 15 -16 156 -115 227 -159 149 -92 456 -230 573
-256 8 -2 60 -15 115 -29 112 -28 135 -32 290 -51 105 -13 474 -14 535 -2 14
3 61 11 105 17 268 38 602 160 852 311 85 51 251 172 322 234 146 127 320 324
417 473 31 48 64 98 73 112 9 14 28 48 41 75 14 28 28 52 31 55 11 10 99 217
129 304 29 83 73 244 84 311 3 17 8 40 10 52 5 24 14 87 22 148 10 78 12 411
3 495 -22 209 -57 367 -124 560 -43 120 -149 349 -194 416 -17 25 -31 47 -31
50 0 3 -19 34 -42 67 -128 186 -317 392 -473 515 -44 35 -88 70 -98 78 -19 16
-141 96 -192 126 -16 10 -93 49 -170 87 -159 78 -299 130 -465 171 -117 29
-146 35 -235 46 -27 3 -61 8 -75 11 -41 9 -420 11 -490 2z m315 -716 c44 -75
82 -142 84 -147 2 -6 21 -38 41 -71 20 -33 48 -80 62 -105 14 -25 92 -160 173
-300 81 -140 156 -271 167 -290 31 -55 128 -223 138 -240 12 -20 153 -263 275
-475 54 -93 109 -187 121 -207 13 -21 24 -40 24 -43 0 -3 20 -38 44 -78 40
-66 268 -461 359 -620 21 -38 36 -71 33 -74 -3 -3 -727 -6 -1611 -7 -1329 -1
-1604 1 -1600 12 3 8 82 147 176 310 95 163 180 312 190 329 10 18 69 119 130
225 61 106 121 209 132 228 10 19 155 269 320 555 165 286 308 534 317 550 16
28 61 105 231 400 35 61 73 127 84 148 11 20 22 37 25 37 3 0 41 -62 85 -137z"/>
</g>
</svg>
